<svg width="252" height="54" viewBox="0 0 252 54" fill="none" xmlns="http://www.w3.org/2000/svg">
<path d="M87.0873 18.6424C64.4244 31.202 28.1232 46.3389 36.3617 21.8636C36.7133 20.8191 35.3435 19.8158 34.5393 20.5694L2.99256 50.1327C2.31275 50.7698 2.79677 51.9085 3.72722 51.8611L73.5288 48.306C73.8866 48.2878 74.2072 48.0797 74.3695 47.7604L88.4811 19.9892C88.9312 19.1033 87.9565 18.1607 87.0873 18.6424Z" stroke="#00FF5E" stroke-width="4"/>
<path d="M97.536 46.96C96.448 46.96 95.424 46.816 94.464 46.528C93.504 46.24 92.72 45.792 92.112 45.184C91.504 44.576 91.2 43.808 91.2 42.88C91.2 42.176 91.408 41.488 91.824 40.816C92.272 40.144 92.896 39.808 93.696 39.808C94.048 39.808 94.368 39.888 94.656 40.048C94.944 40.208 95.136 40.416 95.232 40.672C95.2 40.704 95.12 40.816 94.992 41.008C94.864 41.168 94.784 41.28 94.752 41.344C94.464 41.92 94.32 42.448 94.32 42.928C94.32 43.6 94.56 44.144 95.04 44.56C95.552 44.976 96.208 45.184 97.008 45.184C98.064 45.152 98.976 44.784 99.744 44.08C100.544 43.344 100.944 42.48 100.944 41.488C100.944 40.912 100.816 40.368 100.56 39.856C100.144 38.992 99.584 38.256 98.88 37.648C98.208 37.008 97.552 36.368 96.912 35.728C96.304 35.088 95.856 34.32 95.568 33.424C95.44 33.008 95.376 32.496 95.376 31.888C95.376 31.28 95.456 30.688 95.616 30.112C95.776 29.504 96.016 28.992 96.336 28.576C96.784 27.968 97.456 27.408 98.352 26.896C99.472 26.288 100.784 25.984 102.288 25.984C103.28 25.984 104.16 26.112 104.928 26.368C105.504 26.56 106 26.88 106.416 27.328C106.864 27.744 107.088 28.304 107.088 29.008C107.088 29.808 106.832 30.576 106.32 31.312C105.84 32.016 105.136 32.448 104.208 32.608C103.632 32.672 103.12 32.576 102.672 32.32C102.224 32.032 102.064 31.504 102.192 30.736C103.056 30.544 103.68 30.192 104.064 29.68C104.256 29.392 104.352 29.104 104.352 28.816C104.352 28.272 104.128 27.904 103.68 27.712C103.264 27.488 102.864 27.376 102.48 27.376C102 27.376 101.536 27.44 101.088 27.568C100.672 27.664 100.288 27.84 99.936 28.096C99.232 28.704 98.88 29.408 98.88 30.208C98.88 30.336 98.896 30.48 98.928 30.64C98.992 30.8 99.04 30.96 99.072 31.12C99.232 31.536 99.472 31.92 99.792 32.272C100.112 32.624 100.432 32.928 100.752 33.184C101.552 33.76 102.368 34.384 103.2 35.056C104.064 35.728 104.704 36.544 105.12 37.504C105.44 38.176 105.6 38.864 105.6 39.568C105.6 40.528 105.36 41.408 104.88 42.208C104.4 42.976 103.856 43.584 103.248 44.032C104.304 43.584 105.328 42.8 106.32 41.68C107.344 40.528 108.224 39.392 108.96 38.272C109.44 37.536 109.872 36.848 110.256 36.208C110.672 35.536 111.088 34.8 111.504 34C111.632 33.776 111.744 33.664 111.84 33.664C112.032 33.664 112.128 33.936 112.128 34.48C112.128 34.704 112.08 34.976 111.984 35.296C111.92 35.616 111.808 35.936 111.648 36.256C111.072 37.216 110.528 38.112 110.016 38.944C109.504 39.744 108.88 40.624 108.144 41.584C106.672 43.536 105.104 44.928 103.44 45.76C101.776 46.56 99.808 46.96 97.536 46.96ZM111.981 46.288C111.149 46.288 110.445 45.888 109.869 45.088C109.325 44.256 109.117 43.104 109.245 41.632C109.309 40.704 109.549 39.52 109.965 38.08C110.381 36.64 110.893 35.184 111.501 33.712C112.141 32.208 112.781 30.944 113.421 29.92C114.253 28.608 115.181 27.76 116.205 27.376C117.229 26.992 118.541 26.8 120.141 26.8C120.237 26.8 120.285 26.848 120.285 26.944C120.285 27.104 120.189 27.28 119.997 27.472C119.549 27.856 119.037 28.528 118.461 29.488C117.917 30.416 117.389 31.456 116.877 32.608C116.365 33.76 115.917 34.864 115.533 35.92C115.469 36.144 115.325 36.576 115.101 37.216C114.877 37.856 114.669 38.56 114.477 39.328C114.285 40.064 114.189 40.752 114.189 41.392C114.189 41.904 114.285 42.336 114.477 42.688C114.669 43.008 114.989 43.168 115.437 43.168C116.045 43.136 116.701 42.768 117.405 42.064C118.109 41.328 118.813 40.4 119.517 39.28C120.221 38.16 120.893 37.024 121.533 35.872C122.173 34.688 122.733 33.632 123.213 32.704C123.725 31.744 124.093 31.072 124.317 30.688C124.797 29.92 125.309 29.264 125.853 28.72C126.397 28.144 127.021 27.856 127.725 27.856C127.981 27.856 128.365 27.872 128.877 27.904C129.389 27.904 129.869 27.904 130.317 27.904C130.797 27.904 131.117 27.888 131.277 27.856C131.149 27.92 130.957 28.064 130.701 28.288C130.445 28.48 130.253 28.704 130.125 28.96C129.613 29.952 129.101 30.992 128.589 32.08C128.077 33.168 127.565 34.448 127.053 35.92C126.989 36.144 126.829 36.576 126.573 37.216C126.349 37.856 126.141 38.56 125.949 39.328C125.757 40.064 125.661 40.752 125.661 41.392C125.661 42.16 125.789 42.704 126.045 43.024C126.333 43.344 126.685 43.504 127.101 43.504C127.677 43.504 128.317 43.28 129.021 42.832C129.757 42.352 130.413 41.776 130.989 41.104C131.981 39.952 132.765 38.752 133.341 37.504C133.949 36.224 134.365 35.264 134.589 34.624C134.525 34.272 134.461 33.888 134.397 33.472C134.365 33.056 134.349 32.64 134.349 32.224C134.349 31.648 134.397 31.056 134.493 30.448C134.621 29.84 134.797 29.248 135.021 28.672C135.437 27.648 136.029 27.024 136.797 26.8C136.925 26.768 137.037 26.752 137.133 26.752C137.261 26.72 137.389 26.704 137.517 26.704C138.125 26.704 138.525 26.912 138.717 27.328C138.941 27.744 139.053 28.24 139.053 28.816C139.053 29.392 138.989 29.968 138.861 30.544C138.733 31.088 138.605 31.52 138.477 31.84C138.253 32.448 137.997 33.04 137.709 33.616C137.421 34.16 137.149 34.704 136.893 35.248C136.893 35.44 136.941 35.712 137.037 36.064C137.389 37.6 138.173 38.368 139.389 38.368C140.125 38.368 140.893 38.016 141.693 37.312C142.141 36.928 142.541 36.448 142.893 35.872C143.277 35.264 143.613 34.704 143.901 34.192C144.061 33.936 144.157 33.872 144.189 34C144.253 34.128 144.285 34.336 144.285 34.624C144.285 34.944 144.253 35.312 144.189 35.728C144.125 36.144 144.013 36.48 143.853 36.736C143.373 37.568 142.877 38.208 142.365 38.656C141.853 39.072 141.277 39.408 140.637 39.664C140.381 39.76 140.109 39.84 139.821 39.904C139.533 39.968 139.261 40 139.005 40C138.237 40 137.533 39.792 136.893 39.376C136.285 38.928 135.837 38.24 135.549 37.312L135.405 36.832C135.085 37.376 134.717 38 134.301 38.704C133.885 39.408 133.485 40.048 133.101 40.624C132.749 41.2 132.477 41.616 132.285 41.872C131.197 43.248 130.013 44.336 128.733 45.136C127.485 45.936 126.157 46.336 124.749 46.336C124.589 46.336 124.429 46.336 124.269 46.336C124.109 46.336 123.949 46.32 123.789 46.288C122.573 46.128 121.757 45.584 121.341 44.656C120.925 43.696 120.717 42.736 120.717 41.776C120.717 41.424 120.733 41.088 120.765 40.768C120.829 40.416 120.877 40.128 120.909 39.904C120.429 40.576 119.917 41.2 119.373 41.776C118.861 42.352 118.333 42.928 117.789 43.504C116.573 44.72 115.485 45.488 114.525 45.808C113.565 46.128 112.717 46.288 111.981 46.288ZM152.769 22.96C151.937 22.672 151.521 22.128 151.521 21.328C151.521 20.592 151.809 19.84 152.385 19.072C152.993 18.272 153.649 17.76 154.353 17.536C154.513 17.472 154.641 17.44 154.737 17.44C154.865 17.44 154.993 17.44 155.121 17.44C155.665 17.44 156.113 17.6 156.465 17.92C156.817 18.24 156.993 18.608 156.993 19.024C156.993 19.6 156.689 20.08 156.081 20.464C155.601 20.4 155.137 20.512 154.689 20.8C154.241 21.088 153.841 21.44 153.489 21.856C153.169 22.272 152.929 22.64 152.769 22.96ZM144.513 46.288C144.097 46.288 143.697 46.192 143.313 46C142.929 45.84 142.609 45.504 142.353 44.992C142.001 44.224 141.825 43.312 141.825 42.256C141.825 41.104 142.001 39.824 142.353 38.416C142.705 36.976 143.169 35.504 143.745 34C143.969 33.456 144.257 32.784 144.609 31.984C144.961 31.184 145.377 30.384 145.857 29.584C146.337 28.784 146.881 28.128 147.489 27.616C148.129 27.072 148.817 26.8 149.553 26.8C149.905 26.8 150.401 26.816 151.041 26.848C151.681 26.88 152.145 26.88 152.433 26.848C152.241 26.976 152.017 27.232 151.761 27.616C151.505 28 151.265 28.4 151.041 28.816C150.817 29.2 150.641 29.504 150.513 29.728C149.681 31.392 148.897 33.04 148.161 34.672C147.425 36.304 146.865 37.872 146.481 39.376C146.417 39.632 146.369 39.888 146.337 40.144C146.305 40.4 146.289 40.64 146.289 40.864C146.289 41.792 146.593 42.256 147.201 42.256C147.457 42.256 147.729 42.192 148.017 42.064C148.337 41.904 148.705 41.664 149.121 41.344C149.857 40.768 150.497 40.112 151.041 39.376C151.681 38.544 152.289 37.664 152.865 36.736C153.441 35.776 153.937 34.896 154.353 34.096C154.513 33.84 154.625 33.712 154.689 33.712C154.881 33.712 154.977 33.984 154.977 34.528C154.977 34.784 154.929 35.088 154.833 35.44C154.769 35.76 154.657 36.064 154.497 36.352C154.049 37.12 153.521 37.968 152.913 38.896C152.305 39.824 151.681 40.72 151.041 41.584C150.593 42.192 150.001 42.864 149.265 43.6C148.529 44.336 147.745 44.976 146.913 45.52C146.081 46.032 145.281 46.288 144.513 46.288ZM158.567 46.96C157.479 46.96 156.455 46.816 155.495 46.528C154.535 46.24 153.751 45.792 153.143 45.184C152.535 44.576 152.231 43.808 152.231 42.88C152.231 42.176 152.439 41.488 152.855 40.816C153.303 40.144 153.927 39.808 154.727 39.808C155.079 39.808 155.399 39.888 155.687 40.048C155.975 40.208 156.167 40.416 156.263 40.672C156.231 40.704 156.151 40.816 156.023 41.008C155.895 41.168 155.815 41.28 155.783 41.344C155.495 41.92 155.351 42.448 155.351 42.928C155.351 43.6 155.591 44.144 156.071 44.56C156.583 44.976 157.239 45.184 158.039 45.184C159.095 45.152 160.007 44.784 160.775 44.08C161.575 43.344 161.975 42.48 161.975 41.488C161.975 40.912 161.847 40.368 161.591 39.856C161.175 38.992 160.615 38.256 159.911 37.648C159.239 37.008 158.583 36.368 157.943 35.728C157.335 35.088 156.887 34.32 156.599 33.424C156.471 33.008 156.407 32.496 156.407 31.888C156.407 31.28 156.487 30.688 156.647 30.112C156.807 29.504 157.047 28.992 157.367 28.576C157.815 27.968 158.487 27.408 159.383 26.896C160.503 26.288 161.815 25.984 163.319 25.984C164.311 25.984 165.191 26.112 165.959 26.368C166.535 26.56 167.031 26.88 167.447 27.328C167.895 27.744 168.119 28.304 168.119 29.008C168.119 29.808 167.863 30.576 167.351 31.312C166.871 32.016 166.167 32.448 165.239 32.608C164.663 32.672 164.151 32.576 163.703 32.32C163.255 32.032 163.095 31.504 163.223 30.736C164.087 30.544 164.711 30.192 165.095 29.68C165.287 29.392 165.383 29.104 165.383 28.816C165.383 28.272 165.159 27.904 164.711 27.712C164.295 27.488 163.895 27.376 163.511 27.376C163.031 27.376 162.567 27.44 162.119 27.568C161.703 27.664 161.319 27.84 160.967 28.096C160.263 28.704 159.911 29.408 159.911 30.208C159.911 30.336 159.927 30.48 159.959 30.64C160.023 30.8 160.071 30.96 160.103 31.12C160.263 31.536 160.503 31.92 160.823 32.272C161.143 32.624 161.463 32.928 161.783 33.184C162.583 33.76 163.399 34.384 164.231 35.056C165.095 35.728 165.735 36.544 166.151 37.504C166.471 38.176 166.631 38.864 166.631 39.568C166.631 40.528 166.391 41.408 165.911 42.208C165.431 42.976 164.887 43.584 164.279 44.032C165.335 43.584 166.359 42.8 167.351 41.68C168.375 40.528 169.255 39.392 169.991 38.272C170.471 37.536 170.903 36.848 171.287 36.208C171.703 35.536 172.119 34.8 172.535 34C172.663 33.776 172.775 33.664 172.871 33.664C173.063 33.664 173.159 33.936 173.159 34.48C173.159 34.704 173.111 34.976 173.015 35.296C172.951 35.616 172.839 35.936 172.679 36.256C172.103 37.216 171.559 38.112 171.047 38.944C170.535 39.744 169.911 40.624 169.175 41.584C167.703 43.536 166.135 44.928 164.471 45.76C162.807 46.56 160.839 46.96 158.567 46.96ZM183.668 46.288C182.58 46.288 181.828 45.968 181.412 45.328C181.028 44.656 180.836 43.888 180.836 43.024C180.836 42.096 180.98 41.024 181.268 39.808C181.588 38.56 181.972 37.28 182.42 35.968C182.9 34.624 183.38 33.376 183.86 32.224C184.02 31.84 184.164 31.424 184.292 30.976C184.452 30.528 184.532 30.128 184.532 29.776C184.532 29.136 184.244 28.816 183.668 28.816C183.444 28.816 183.188 28.864 182.9 28.96C182.612 29.024 182.276 29.168 181.892 29.392C181.22 29.712 180.58 30.16 179.972 30.736C179.364 31.28 178.948 31.696 178.724 31.984C178.308 32.496 177.908 33.072 177.524 33.712C177.14 34.32 176.804 34.944 176.516 35.584C175.876 36.96 175.364 38.272 174.98 39.52C174.628 40.736 174.292 41.776 173.972 42.64C173.78 43.184 173.588 43.744 173.396 44.32C173.204 44.896 173.028 45.456 172.868 46H168.212C168.212 46 168.324 45.6 168.548 44.8C168.772 44 169.044 43.2 169.364 42.4C170.836 38.592 172.228 34.704 173.54 30.736C174.852 26.768 176.436 22.96 178.292 19.312C179.124 17.68 180.02 16.176 180.98 14.8C181.972 13.424 183.012 12.336 184.1 11.536C185.22 10.704 186.388 10.288 187.604 10.288C188.564 10.288 189.22 10.512 189.572 10.96C189.956 11.376 190.148 11.904 190.148 12.544C190.148 13.248 190.004 13.984 189.716 14.752C189.428 15.52 189.14 16.176 188.852 16.72C188.276 17.872 187.524 19.168 186.596 20.608C185.668 22.048 184.692 23.392 183.668 24.64C183.444 24.928 183.06 25.392 182.516 26.032C181.972 26.64 181.412 27.264 180.836 27.904C180.292 28.544 179.86 29.04 179.54 29.392C180.596 28.624 181.508 28.032 182.276 27.616C183.044 27.2 183.7 26.912 184.244 26.752C185.172 26.496 185.94 26.368 186.548 26.368C188.372 26.368 189.284 27.168 189.284 28.768C189.284 29.44 189.092 30.24 188.708 31.168C188.516 31.68 188.244 32.368 187.892 33.232C187.54 34.096 187.172 35.024 186.788 36.016C186.436 36.976 186.132 37.904 185.876 38.8C185.652 39.696 185.54 40.432 185.54 41.008C185.54 41.36 185.588 41.68 185.684 41.968C185.812 42.224 186.036 42.352 186.356 42.352C186.58 42.352 186.9 42.24 187.316 42.016C188.212 41.504 189.044 40.784 189.812 39.856C190.612 38.928 191.316 37.936 191.924 36.88C192.564 35.824 193.108 34.864 193.556 34C193.652 33.776 193.764 33.664 193.892 33.664C194.052 33.664 194.132 33.936 194.132 34.48C194.132 34.736 194.1 35.04 194.036 35.392C193.972 35.712 193.844 36.032 193.652 36.352C193.204 37.12 192.612 38.064 191.876 39.184C191.172 40.304 190.372 41.408 189.476 42.496C188.58 43.552 187.636 44.448 186.644 45.184C185.652 45.92 184.66 46.288 183.668 46.288ZM178.148 29.056C179.748 27.168 181.364 25.152 182.996 23.008C184.66 20.832 186.036 18.624 187.124 16.384C187.188 16.224 187.332 15.904 187.556 15.424C187.78 14.944 187.988 14.416 188.18 13.84C188.372 13.232 188.468 12.72 188.468 12.304C188.468 11.76 188.26 11.488 187.844 11.488C187.428 11.488 186.932 11.776 186.356 12.352C185.812 12.928 185.252 13.696 184.676 14.656C183.94 15.872 183.188 17.28 182.42 18.88C181.652 20.448 180.9 22.112 180.164 23.872C179.46 25.632 178.788 27.36 178.148 29.056Z" fill="#1d43ff"/>
</svg>