<svg width="67" height="17" viewBox="0 0 67 17" fill="none" xmlns="http://www.w3.org/2000/svg">
<path d="M29.6157 2.74869C22.5299 7.13585 13.2151 11.418 12.5134 6.295C12.3621 5.19036 10.6539 4.19018 9.90704 5.01805L1.63737 14.185C1.03778 14.8496 1.5465 15.9068 2.44001 15.853L26.0686 14.4295C26.4459 14.4068 26.7781 14.1733 26.9273 13.826L31.1344 4.03261C31.5288 3.11433 30.4654 2.22259 29.6157 2.74869Z" stroke="#00FF5E" stroke-width="2"/>
<path d="M32.9665 15.32C32.6039 15.32 32.2625 15.272 31.9425 15.176C31.6225 15.08 31.3612 14.9307 31.1585 14.728C30.9559 14.5253 30.8545 14.2693 30.8545 13.96C30.8545 13.7253 30.9239 13.496 31.0625 13.272C31.2119 13.048 31.4199 12.936 31.6865 12.936C31.8039 12.936 31.9105 12.9627 32.0065 13.016C32.1025 13.0693 32.1665 13.1387 32.1985 13.224C32.1879 13.2347 32.1612 13.272 32.1185 13.336C32.0759 13.3893 32.0492 13.4267 32.0385 13.448C31.9425 13.64 31.8945 13.816 31.8945 13.976C31.8945 14.2 31.9745 14.3813 32.1345 14.52C32.3052 14.6587 32.5239 14.728 32.7905 14.728C33.1425 14.7173 33.4465 14.5947 33.7025 14.36C33.9692 14.1147 34.1025 13.8267 34.1025 13.496C34.1025 13.304 34.0599 13.1227 33.9745 12.952C33.8359 12.664 33.6492 12.4187 33.4145 12.216C33.1905 12.0027 32.9719 11.7893 32.7585 11.576C32.5559 11.3627 32.4065 11.1067 32.3105 10.808C32.2679 10.6693 32.2465 10.4987 32.2465 10.296C32.2465 10.0933 32.2732 9.896 32.3265 9.704C32.3799 9.50133 32.4599 9.33067 32.5665 9.192C32.7159 8.98933 32.9399 8.80267 33.2385 8.632C33.6119 8.42933 34.0492 8.328 34.5505 8.328C34.8812 8.328 35.1745 8.37067 35.4305 8.456C35.6225 8.52 35.7879 8.62667 35.9265 8.776C36.0759 8.91467 36.1505 9.10133 36.1505 9.336C36.1505 9.60267 36.0652 9.85867 35.8945 10.104C35.7345 10.3387 35.4999 10.4827 35.1905 10.536C34.9985 10.5573 34.8279 10.5253 34.6785 10.44C34.5292 10.344 34.4759 10.168 34.5185 9.912C34.8065 9.848 35.0145 9.73067 35.1425 9.56C35.2065 9.464 35.2385 9.368 35.2385 9.272C35.2385 9.09067 35.1639 8.968 35.0145 8.904C34.8759 8.82933 34.7425 8.792 34.6145 8.792C34.4545 8.792 34.2999 8.81333 34.1505 8.856C34.0119 8.888 33.8839 8.94667 33.7665 9.032C33.5319 9.23467 33.4145 9.46933 33.4145 9.736C33.4145 9.77867 33.4199 9.82667 33.4305 9.88C33.4519 9.93333 33.4679 9.98667 33.4785 10.04C33.5319 10.1787 33.6119 10.3067 33.7185 10.424C33.8252 10.5413 33.9319 10.6427 34.0385 10.728C34.3052 10.92 34.5772 11.128 34.8545 11.352C35.1425 11.576 35.3559 11.848 35.4945 12.168C35.6012 12.392 35.6545 12.6213 35.6545 12.856C35.6545 13.176 35.5745 13.4693 35.4145 13.736C35.2545 13.992 35.0732 14.1947 34.8705 14.344C35.2225 14.1947 35.5639 13.9333 35.8945 13.56C36.2359 13.176 36.5292 12.7973 36.7745 12.424C36.9345 12.1787 37.0785 11.9493 37.2065 11.736C37.3452 11.512 37.4839 11.2667 37.6225 11C37.6652 10.9253 37.7025 10.888 37.7345 10.888C37.7985 10.888 37.8305 10.9787 37.8305 11.16C37.8305 11.2347 37.8145 11.3253 37.7825 11.432C37.7612 11.5387 37.7239 11.6453 37.6705 11.752C37.4785 12.072 37.2972 12.3707 37.1265 12.648C36.9559 12.9147 36.7479 13.208 36.5025 13.528C36.0119 14.1787 35.4892 14.6427 34.9345 14.92C34.3799 15.1867 33.7239 15.32 32.9665 15.32ZM37.7814 15.096C37.5041 15.096 37.2694 14.9627 37.0774 14.696C36.8961 14.4187 36.8268 14.0347 36.8694 13.544C36.8908 13.2347 36.9708 12.84 37.1094 12.36C37.2481 11.88 37.4188 11.3947 37.6214 10.904C37.8348 10.4027 38.0481 9.98133 38.2614 9.64C38.5388 9.20267 38.8481 8.92 39.1894 8.792C39.5308 8.664 39.9681 8.6 40.5014 8.6C40.5334 8.6 40.5494 8.616 40.5494 8.648C40.5494 8.70133 40.5174 8.76 40.4534 8.824C40.3041 8.952 40.1334 9.176 39.9414 9.496C39.7601 9.80533 39.5841 10.152 39.4134 10.536C39.2428 10.92 39.0934 11.288 38.9654 11.64C38.9441 11.7147 38.8961 11.8587 38.8214 12.072C38.7468 12.2853 38.6774 12.52 38.6134 12.776C38.5494 13.0213 38.5174 13.2507 38.5174 13.464C38.5174 13.6347 38.5494 13.7787 38.6134 13.896C38.6774 14.0027 38.7841 14.056 38.9334 14.056C39.1361 14.0453 39.3548 13.9227 39.5894 13.688C39.8241 13.4427 40.0588 13.1333 40.2934 12.76C40.5281 12.3867 40.7521 12.008 40.9654 11.624C41.1788 11.2293 41.3654 10.8773 41.5254 10.568C41.6961 10.248 41.8188 10.024 41.8934 9.896C42.0534 9.64 42.2241 9.42133 42.4054 9.24C42.5868 9.048 42.7948 8.952 43.0294 8.952C43.1148 8.952 43.2428 8.95733 43.4134 8.968C43.5841 8.968 43.7441 8.968 43.8934 8.968C44.0534 8.968 44.1601 8.96267 44.2134 8.952C44.1708 8.97333 44.1068 9.02133 44.0214 9.096C43.9361 9.16 43.8721 9.23467 43.8294 9.32C43.6588 9.65067 43.4881 9.99733 43.3174 10.36C43.1468 10.7227 42.9761 11.1493 42.8054 11.64C42.7841 11.7147 42.7308 11.8587 42.6454 12.072C42.5708 12.2853 42.5014 12.52 42.4374 12.776C42.3734 13.0213 42.3414 13.2507 42.3414 13.464C42.3414 13.72 42.3841 13.9013 42.4694 14.008C42.5654 14.1147 42.6828 14.168 42.8214 14.168C43.0134 14.168 43.2268 14.0933 43.4614 13.944C43.7068 13.784 43.9254 13.592 44.1174 13.368C44.4481 12.984 44.7094 12.584 44.9014 12.168C45.1041 11.7413 45.2428 11.4213 45.3174 11.208C45.2961 11.0907 45.2748 10.9627 45.2534 10.824C45.2428 10.6853 45.2374 10.5467 45.2374 10.408C45.2374 10.216 45.2534 10.0187 45.2854 9.816C45.3281 9.61333 45.3868 9.416 45.4614 9.224C45.6001 8.88267 45.7974 8.67467 46.0534 8.6C46.0961 8.58933 46.1334 8.584 46.1654 8.584C46.2081 8.57333 46.2508 8.568 46.2934 8.568C46.4961 8.568 46.6294 8.63733 46.6934 8.776C46.7681 8.91467 46.8054 9.08 46.8054 9.272C46.8054 9.464 46.7841 9.656 46.7414 9.848C46.6988 10.0293 46.6561 10.1733 46.6134 10.28C46.5388 10.4827 46.4534 10.68 46.3574 10.872C46.2614 11.0533 46.1708 11.2347 46.0854 11.416C46.0854 11.48 46.1014 11.5707 46.1334 11.688C46.2508 12.2 46.5121 12.456 46.9174 12.456C47.1628 12.456 47.4188 12.3387 47.6854 12.104C47.8348 11.976 47.9681 11.816 48.0854 11.624C48.2134 11.4213 48.3254 11.2347 48.4214 11.064C48.4748 10.9787 48.5068 10.9573 48.5174 11C48.5388 11.0427 48.5494 11.112 48.5494 11.208C48.5494 11.3147 48.5388 11.4373 48.5174 11.576C48.4961 11.7147 48.4588 11.8267 48.4054 11.912C48.2454 12.1893 48.0801 12.4027 47.9094 12.552C47.7388 12.6907 47.5468 12.8027 47.3334 12.888C47.2481 12.92 47.1574 12.9467 47.0614 12.968C46.9654 12.9893 46.8748 13 46.7894 13C46.5334 13 46.2988 12.9307 46.0854 12.792C45.8828 12.6427 45.7334 12.4133 45.6374 12.104L45.5894 11.944C45.4828 12.1253 45.3601 12.3333 45.2214 12.568C45.0828 12.8027 44.9494 13.016 44.8214 13.208C44.7041 13.4 44.6134 13.5387 44.5494 13.624C44.1868 14.0827 43.7921 14.4453 43.3654 14.712C42.9494 14.9787 42.5068 15.112 42.0374 15.112C41.9841 15.112 41.9308 15.112 41.8774 15.112C41.8241 15.112 41.7708 15.1067 41.7174 15.096C41.3121 15.0427 41.0401 14.8613 40.9014 14.552C40.7628 14.232 40.6934 13.912 40.6934 13.592C40.6934 13.4747 40.6988 13.3627 40.7094 13.256C40.7308 13.1387 40.7468 13.0427 40.7574 12.968C40.5974 13.192 40.4268 13.4 40.2454 13.592C40.0748 13.784 39.8988 13.976 39.7174 14.168C39.3121 14.5733 38.9494 14.8293 38.6294 14.936C38.3094 15.0427 38.0268 15.096 37.7814 15.096ZM51.3775 7.32C51.1002 7.224 50.9615 7.04267 50.9615 6.776C50.9615 6.53067 51.0575 6.28 51.2495 6.024C51.4522 5.75733 51.6709 5.58667 51.9055 5.512C51.9589 5.49067 52.0015 5.48 52.0335 5.48C52.0762 5.48 52.1189 5.48 52.1615 5.48C52.3429 5.48 52.4922 5.53333 52.6095 5.64C52.7269 5.74667 52.7855 5.86933 52.7855 6.008C52.7855 6.2 52.6842 6.36 52.4815 6.488C52.3215 6.46667 52.1669 6.504 52.0175 6.6C51.8682 6.696 51.7349 6.81333 51.6175 6.952C51.5109 7.09067 51.4309 7.21333 51.3775 7.32ZM48.6255 15.096C48.4869 15.096 48.3535 15.064 48.2255 15C48.0975 14.9467 47.9909 14.8347 47.9055 14.664C47.7882 14.408 47.7295 14.104 47.7295 13.752C47.7295 13.368 47.7882 12.9413 47.9055 12.472C48.0229 11.992 48.1775 11.5013 48.3695 11C48.4442 10.8187 48.5402 10.5947 48.6575 10.328C48.7749 10.0613 48.9135 9.79467 49.0735 9.528C49.2335 9.26133 49.4149 9.04267 49.6175 8.872C49.8309 8.69067 50.0602 8.6 50.3055 8.6C50.4229 8.6 50.5882 8.60533 50.8015 8.616C51.0149 8.62667 51.1695 8.62667 51.2655 8.616C51.2015 8.65867 51.1269 8.744 51.0415 8.872C50.9562 9 50.8762 9.13333 50.8015 9.272C50.7269 9.4 50.6682 9.50133 50.6255 9.576C50.3482 10.1307 50.0869 10.68 49.8415 11.224C49.5962 11.768 49.4095 12.2907 49.2815 12.792C49.2602 12.8773 49.2442 12.9627 49.2335 13.048C49.2229 13.1333 49.2175 13.2133 49.2175 13.288C49.2175 13.5973 49.3189 13.752 49.5215 13.752C49.6069 13.752 49.6975 13.7307 49.7935 13.688C49.9002 13.6347 50.0229 13.5547 50.1615 13.448C50.4069 13.256 50.6202 13.0373 50.8015 12.792C51.0149 12.5147 51.2175 12.2213 51.4095 11.912C51.6015 11.592 51.7669 11.2987 51.9055 11.032C51.9589 10.9467 51.9962 10.904 52.0175 10.904C52.0815 10.904 52.1135 10.9947 52.1135 11.176C52.1135 11.2613 52.0975 11.3627 52.0655 11.48C52.0442 11.5867 52.0069 11.688 51.9535 11.784C51.8042 12.04 51.6282 12.3227 51.4255 12.632C51.2229 12.9413 51.0149 13.24 50.8015 13.528C50.6522 13.7307 50.4549 13.9547 50.2095 14.2C49.9642 14.4453 49.7029 14.6587 49.4255 14.84C49.1482 15.0107 48.8815 15.096 48.6255 15.096ZM53.3103 15.32C52.9476 15.32 52.6063 15.272 52.2863 15.176C51.9663 15.08 51.705 14.9307 51.5023 14.728C51.2996 14.5253 51.1983 14.2693 51.1983 13.96C51.1983 13.7253 51.2676 13.496 51.4063 13.272C51.5556 13.048 51.7636 12.936 52.0303 12.936C52.1476 12.936 52.2543 12.9627 52.3503 13.016C52.4463 13.0693 52.5103 13.1387 52.5423 13.224C52.5316 13.2347 52.505 13.272 52.4623 13.336C52.4196 13.3893 52.393 13.4267 52.3823 13.448C52.2863 13.64 52.2383 13.816 52.2383 13.976C52.2383 14.2 52.3183 14.3813 52.4783 14.52C52.649 14.6587 52.8676 14.728 53.1343 14.728C53.4863 14.7173 53.7903 14.5947 54.0463 14.36C54.313 14.1147 54.4463 13.8267 54.4463 13.496C54.4463 13.304 54.4036 13.1227 54.3183 12.952C54.1796 12.664 53.993 12.4187 53.7583 12.216C53.5343 12.0027 53.3156 11.7893 53.1023 11.576C52.8996 11.3627 52.7503 11.1067 52.6543 10.808C52.6116 10.6693 52.5903 10.4987 52.5903 10.296C52.5903 10.0933 52.617 9.896 52.6703 9.704C52.7236 9.50133 52.8036 9.33067 52.9103 9.192C53.0596 8.98933 53.2836 8.80267 53.5823 8.632C53.9556 8.42933 54.393 8.328 54.8943 8.328C55.225 8.328 55.5183 8.37067 55.7743 8.456C55.9663 8.52 56.1316 8.62667 56.2703 8.776C56.4196 8.91467 56.4943 9.10133 56.4943 9.336C56.4943 9.60267 56.409 9.85867 56.2383 10.104C56.0783 10.3387 55.8436 10.4827 55.5343 10.536C55.3423 10.5573 55.1716 10.5253 55.0223 10.44C54.873 10.344 54.8196 10.168 54.8623 9.912C55.1503 9.848 55.3583 9.73067 55.4863 9.56C55.5503 9.464 55.5823 9.368 55.5823 9.272C55.5823 9.09067 55.5076 8.968 55.3583 8.904C55.2196 8.82933 55.0863 8.792 54.9583 8.792C54.7983 8.792 54.6436 8.81333 54.4943 8.856C54.3556 8.888 54.2276 8.94667 54.1103 9.032C53.8756 9.23467 53.7583 9.46933 53.7583 9.736C53.7583 9.77867 53.7636 9.82667 53.7743 9.88C53.7956 9.93333 53.8116 9.98667 53.8223 10.04C53.8756 10.1787 53.9556 10.3067 54.0623 10.424C54.169 10.5413 54.2756 10.6427 54.3823 10.728C54.649 10.92 54.921 11.128 55.1983 11.352C55.4863 11.576 55.6996 11.848 55.8383 12.168C55.945 12.392 55.9983 12.6213 55.9983 12.856C55.9983 13.176 55.9183 13.4693 55.7583 13.736C55.5983 13.992 55.417 14.1947 55.2143 14.344C55.5663 14.1947 55.9076 13.9333 56.2383 13.56C56.5796 13.176 56.873 12.7973 57.1183 12.424C57.2783 12.1787 57.4223 11.9493 57.5503 11.736C57.689 11.512 57.8276 11.2667 57.9663 11C58.009 10.9253 58.0463 10.888 58.0783 10.888C58.1423 10.888 58.1743 10.9787 58.1743 11.16C58.1743 11.2347 58.1583 11.3253 58.1263 11.432C58.105 11.5387 58.0676 11.6453 58.0143 11.752C57.8223 12.072 57.641 12.3707 57.4703 12.648C57.2996 12.9147 57.0916 13.208 56.8463 13.528C56.3556 14.1787 55.833 14.6427 55.2783 14.92C54.7236 15.1867 54.0676 15.32 53.3103 15.32ZM61.6772 15.096C61.3145 15.096 61.0638 14.9893 60.9252 14.776C60.7972 14.552 60.7332 14.296 60.7332 14.008C60.7332 13.6987 60.7812 13.3413 60.8772 12.936C60.9838 12.52 61.1118 12.0933 61.2612 11.656C61.4212 11.208 61.5812 10.792 61.7412 10.408C61.7945 10.28 61.8425 10.1413 61.8852 9.992C61.9385 9.84267 61.9652 9.70933 61.9652 9.592C61.9652 9.37867 61.8692 9.272 61.6772 9.272C61.6025 9.272 61.5172 9.288 61.4212 9.32C61.3252 9.34133 61.2132 9.38933 61.0852 9.464C60.8612 9.57067 60.6478 9.72 60.4452 9.912C60.2425 10.0933 60.1038 10.232 60.0292 10.328C59.8905 10.4987 59.7572 10.6907 59.6292 10.904C59.5012 11.1067 59.3892 11.3147 59.2932 11.528C59.0798 11.9867 58.9092 12.424 58.7812 12.84C58.6638 13.2453 58.5518 13.592 58.4452 13.88C58.3812 14.0613 58.3172 14.248 58.2532 14.44C58.1892 14.632 58.1305 14.8187 58.0772 15H56.5252C56.5252 15 56.5625 14.8667 56.6372 14.6C56.7118 14.3333 56.8025 14.0667 56.9092 13.8C57.3998 12.5307 57.8638 11.2347 58.3012 9.912C58.7385 8.58933 59.2665 7.32 59.8852 6.104C60.1625 5.56 60.4612 5.05867 60.7812 4.6C61.1118 4.14133 61.4585 3.77867 61.8212 3.512C62.1945 3.23467 62.5838 3.096 62.9892 3.096C63.3092 3.096 63.5278 3.17067 63.6452 3.32C63.7732 3.45867 63.8372 3.63467 63.8372 3.848C63.8372 4.08267 63.7892 4.328 63.6932 4.584C63.5972 4.84 63.5012 5.05867 63.4052 5.24C63.2132 5.624 62.9625 6.056 62.6532 6.536C62.3438 7.016 62.0185 7.464 61.6772 7.88C61.6025 7.976 61.4745 8.13067 61.2932 8.344C61.1118 8.54667 60.9252 8.75467 60.7332 8.968C60.5518 9.18133 60.4078 9.34667 60.3012 9.464C60.6532 9.208 60.9572 9.01067 61.2132 8.872C61.4692 8.73333 61.6878 8.63733 61.8692 8.584C62.1785 8.49867 62.4345 8.456 62.6372 8.456C63.2452 8.456 63.5492 8.72267 63.5492 9.256C63.5492 9.48 63.4852 9.74667 63.3572 10.056C63.2932 10.2267 63.2025 10.456 63.0852 10.744C62.9678 11.032 62.8452 11.3413 62.7172 11.672C62.5998 11.992 62.4985 12.3013 62.4132 12.6C62.3385 12.8987 62.3012 13.144 62.3012 13.336C62.3012 13.4533 62.3172 13.56 62.3492 13.656C62.3918 13.7413 62.4665 13.784 62.5732 13.784C62.6478 13.784 62.7545 13.7467 62.8932 13.672C63.1918 13.5013 63.4692 13.2613 63.7252 12.952C63.9918 12.6427 64.2265 12.312 64.4292 11.96C64.6425 11.608 64.8238 11.288 64.9732 11C65.0052 10.9253 65.0425 10.888 65.0852 10.888C65.1385 10.888 65.1652 10.9787 65.1652 11.16C65.1652 11.2453 65.1545 11.3467 65.1332 11.464C65.1118 11.5707 65.0692 11.6773 65.0052 11.784C64.8558 12.04 64.6585 12.3547 64.4132 12.728C64.1785 13.1013 63.9118 13.4693 63.6132 13.832C63.3145 14.184 62.9998 14.4827 62.6692 14.728C62.3385 14.9733 62.0078 15.096 61.6772 15.096ZM59.8372 9.352C60.3705 8.72267 60.9092 8.05067 61.4532 7.336C62.0078 6.61067 62.4665 5.87467 62.8292 5.128C62.8505 5.07467 62.8985 4.968 62.9732 4.808C63.0478 4.648 63.1172 4.472 63.1812 4.28C63.2452 4.07733 63.2772 3.90667 63.2772 3.768C63.2772 3.58667 63.2078 3.496 63.0692 3.496C62.9305 3.496 62.7652 3.592 62.5732 3.784C62.3918 3.976 62.2052 4.232 62.0132 4.552C61.7678 4.95733 61.5172 5.42667 61.2612 5.96C61.0052 6.48267 60.7545 7.03733 60.5092 7.624C60.2745 8.21067 60.0505 8.78667 59.8372 9.352Z" fill="#0E73FF"/>
</svg>
